<svg version="1.1" xmlns="http://www.w3.org/2000/svg" xmlns:xlink="http://www.w3.org/1999/xlink" width="215.5" height="215.5" viewBox="0,0,215.5,215.5"><defs><radialGradient cx="240" cy="180" r="89" gradientUnits="userSpaceOnUse" id="color-1"><stop offset="0" stop-color="#ff0000"/><stop offset="1" stop-color="#ff0000" stop-opacity="0"/></radialGradient></defs><g transform="translate(-132.25,-72.25)"><g data-paper-data="{&quot;isPaintingLayer&quot;:true}" fill="none" fill-rule="nonzero" stroke-linejoin="miter" stroke-miterlimit="10" stroke-dasharray="" stroke-dashoffset="0" style="mix-blend-mode: normal"><path d="M169.33334,180c0,-39.02812 31.63854,-70.66666 70.66666,-70.66666c39.02812,0 70.66667,31.63854 70.66667,70.66666c0,39.02812 -31.63855,70.66666 -70.66667,70.66666c-39.02812,0 -70.66666,-31.63854 -70.66666,-70.66666z" stroke="#ff0000" stroke-width="2.5" stroke-linecap="butt"/><path d="M180.88952,216.92586l59.11049,-105.85171l59.11048,105.85171z" stroke="#ff0000" stroke-width="2.5" stroke-linecap="butt"/><path d="M299.11049,143.74081l-59.11048,105.85171l-59.11049,-105.85171z" stroke="#ff0000" stroke-width="2.5" stroke-linecap="butt"/><path d="M162.33334,180c0,-42.89411 34.77255,-77.66666 77.66666,-77.66666c42.89412,0 77.66667,34.77255 77.66667,77.66666c0,42.89412 -34.77255,77.66667 -77.66667,77.66667c-42.89411,0 -77.66666,-34.77255 -77.66666,-77.66667z" stroke="#ff0000" stroke-width="2.5" stroke-linecap="butt"/><path d="M294.68293,125.31708l-4.71404,4.71404" stroke="#ff0000" stroke-width="2.5" stroke-linecap="round"/><path d="M190.03112,229.96888l-4.71404,4.71404" stroke="#ff0000" stroke-width="2.5" stroke-linecap="round"/><path d="M240,102.66667v6.66667" stroke="#ff0000" stroke-width="2.5" stroke-linecap="round"/><path d="M240,250.66667v6.66666" stroke="#ff0000" stroke-width="2.5" stroke-linecap="round"/><path d="M185.31708,125.31708l4.71404,4.71404" stroke="#ff0000" stroke-width="2.5" stroke-linecap="round"/><path d="M289.96888,229.96888l4.71404,4.71404" stroke="#ff0000" stroke-width="2.5" stroke-linecap="round"/><path d="M162.66667,180h6.66666" stroke="#ff0000" stroke-width="2.5" stroke-linecap="round"/><path d="M310.66667,180h6.66666" stroke="#ff0000" stroke-width="2.5" stroke-linecap="round"/><path d="M311.6278,150.84691l-6.17481,2.5132" stroke="#ff0000" stroke-width="2.5" stroke-linecap="round"/><path d="M174.54701,206.6399l-6.17481,2.5132" stroke="#ff0000" stroke-width="2.5" stroke-linecap="round"/><path d="M270.03416,108.73715l-2.58915,6.14335" stroke="#ff0000" stroke-width="2.5" stroke-linecap="round"/><path d="M212.555,245.11951l-2.58915,6.14335" stroke="#ff0000" stroke-width="2.5" stroke-linecap="round"/><path d="M210.84691,108.3722l2.5132,6.17481" stroke="#ff0000" stroke-width="2.5" stroke-linecap="round"/><path d="M266.6399,245.45299l2.5132,6.17481" stroke="#ff0000" stroke-width="2.5" stroke-linecap="round"/><path d="M168.73715,149.96585l6.14335,2.58915" stroke="#ff0000" stroke-width="2.5" stroke-linecap="round"/><path d="M305.11951,207.44501l6.14335,2.58915" stroke="#ff0000" stroke-width="2.5" stroke-linecap="round"/><path d="M151,180c0,-49.15334 39.84666,-89 89,-89c49.15334,0 89,39.84666 89,89c0,49.15334 -39.84666,89 -89,89c-49.15334,0 -89,-39.84666 -89,-89z" stroke="url(#color-1)" stroke-width="37.5" stroke-linecap="butt"/></g></g></svg>